Genre: Adventure | Fantasy
Language:English
 
http://www.imdb.com/title/tt1720619/

Source:Neverlend.2011.P.DVD.ELEKTRI4KA Thanks!
Encoder:Tony

Format : AVI
Format/Info : Audio Video Interleave
File size : 1.63 GiB
Duration : 2h 40mn
Overall bit rate : 1 455 Kbps

Video
ID : 0
Format : MPEG-4 Visual
Format profile : Advanced Simple@L5
Format settings, BVOP : 1
Format settings, QPel : No
Format settings, GMC : No warppoints
Format settings, Matrix : Default (H.263)
Codec ID : XVID
Codec ID/Hint : XviD
Duration : 2h 40mn
Bit rate : 997 Kbps
Width : 640 pixels
Height : 352 pixels
Display aspect ratio : 16:9
Frame rate : 25.000 fps
Color space : YUV
Chroma subsampling : 4:2:0
Bit depth : 8 bits
Scan type : Progressive
Compression mode : Lossy
Bits/(Pixel*Frame) : 0.177
Stream size : 1.12 GiB (69%)
Writing library : XviD 1.2.1 (UTC 2008-12-04)

Audio
ID : 1
Format : AC-3
Format/Info : Audio Coding 3
Mode extension : CM (complete main)
Codec ID : 2000
Duration : 2h 40mn
Bit rate mode : Constant
Bit rate : 448 Kbps
Channel(s) : 6 channels
Channel positions : Front: L C R, Side: L R, LFE
Sampling rate : 48.0 KHz
Bit depth : 16 bits
Compression mode : Lossy
Stream size : 515 MiB (31%)
Alignment : Aligned on interleaves
Interleave, duration : 40 ms (1.00 video frame)
Interleave, preload duration : 512 ms


Plot:
Raised on the streets of turn-of-the century London, orphaned Peter and his pals survive by their fearless wits as cunning young pickpockets
 
http://shareimage.org/images/mwiycvp21tnsnrm12ot7.png 
http://shareimage.org/images/iyjmbi48hp1f6500y80b.png 
http://shareimage.org/images/1mi9vzwdeib06sgqtfef.png 
http://shareimage.org/images/4fffjtc9qhxfxz7yi1ak.png

